<svg width="1248" height="635" viewBox="0 0 1248 635" fill="none" xmlns="http://www.w3.org/2000/svg">
<path d="M1042 269H206C177.281 269 154 292.281 154 321C154 349.719 177.281 373 206 373H1042C1070.72 373 1094 349.719 1094 321C1094 292.281 1070.72 269 1042 269Z" stroke="#EEF6FE" stroke-width="12"/>
<path d="M215.625 397.5C214.797 397.5 214.125 398.172 214.125 399C214.125 399.828 214.797 400.5 215.625 400.5V397.5ZM201.875 400.5C202.703 400.5 203.375 399.828 203.375 399C203.375 398.172 202.703 397.5 201.875 397.5V400.5ZM185.006 396.853C184.185 396.746 183.432 397.325 183.325 398.147C183.218 398.968 183.797 399.721 184.618 399.828L185.006 396.853ZM164.568 394.467C165.333 394.784 166.211 394.421 166.528 393.656C166.845 392.891 166.482 392.013 165.717 391.696L164.568 394.467ZM148.429 381.696C147.772 381.191 146.83 381.314 146.325 381.971C145.821 382.628 145.944 383.57 146.601 384.075L148.429 381.696ZM131.925 369.399C132.43 370.056 133.372 370.179 134.029 369.675C134.686 369.17 134.809 368.228 134.304 367.571L131.925 369.399ZM124.304 350.283C123.987 349.518 123.109 349.155 122.344 349.472C121.579 349.789 121.216 350.667 121.533 351.432L124.304 350.283ZM116.172 331.382C116.279 332.203 117.032 332.782 117.853 332.675C118.675 332.568 119.254 331.815 119.147 330.994L116.172 331.382ZM119.147 311.006C119.254 310.185 118.675 309.432 117.853 309.325C117.032 309.218 116.279 309.797 116.172 310.618L119.147 311.006ZM121.533 290.568C121.216 291.333 121.579 292.211 122.344 292.528C123.109 292.845 123.987 292.482 124.304 291.717L121.533 290.568ZM134.304 274.429C134.809 273.772 134.686 272.83 134.029 272.325C133.372 271.821 132.43 271.944 131.925 272.601L134.304 274.429ZM146.601 257.925C145.944 258.43 145.821 259.372 146.325 260.029C146.83 260.686 147.772 260.809 148.429 260.304L146.601 257.925ZM165.717 250.304C166.482 249.987 166.845 249.109 166.528 248.344C166.211 247.579 165.333 247.216 164.568 247.533L165.717 250.304ZM184.618 242.172C183.797 242.279 183.218 243.032 183.325 243.853C183.432 244.675 184.185 245.254 185.006 245.147L184.618 242.172ZM206.25 244.5C207.078 244.5 207.75 243.828 207.75 243C207.75 242.172 207.078 241.5 206.25 241.5V244.5ZM228.75 241.5C227.922 241.5 227.25 242.172 227.25 243C227.25 243.828 227.922 244.5 228.75 244.5V241.5ZM251.25 244.5C252.078 244.5 252.75 243.828 252.75 243C252.75 242.172 252.078 241.5 251.25 241.5V244.5ZM273.75 241.5C272.922 241.5 272.25 242.172 272.25 243C272.25 243.828 272.922 244.5 273.75 244.5V241.5ZM296.25 244.5C297.078 244.5 297.75 243.828 297.75 243C297.75 242.172 297.078 241.5 296.25 241.5V244.5ZM318.75 241.5C317.922 241.5 317.25 242.172 317.25 243C317.25 243.828 317.922 244.5 318.75 244.5V241.5ZM341.25 244.5C342.078 244.5 342.75 243.828 342.75 243C342.75 242.172 342.078 241.5 341.25 241.5V244.5ZM363.75 241.5C362.922 241.5 362.25 242.172 362.25 243C362.25 243.828 362.922 244.5 363.75 244.5V241.5ZM222.5 397.5H215.625V400.5H222.5V397.5ZM201.875 397.5H195V400.5H201.875V397.5ZM195 397.5C191.612 397.5 188.277 397.28 185.006 396.853L184.618 399.828C188.017 400.271 191.482 400.5 195 400.5V397.5ZM165.717 391.696C159.499 389.117 153.693 385.741 148.429 381.696L146.601 384.075C152.071 388.278 158.104 391.786 164.568 394.467L165.717 391.696ZM134.304 367.571C130.259 362.307 126.883 356.501 124.304 350.283L121.533 351.432C124.214 357.896 127.722 363.929 131.925 369.399L134.304 367.571ZM119.147 330.994C118.72 327.723 118.5 324.388 118.5 321H115.5C115.5 324.518 115.729 327.983 116.172 331.382L119.147 330.994ZM118.5 321C118.5 317.612 118.72 314.277 119.147 311.006L116.172 310.618C115.729 314.017 115.5 317.482 115.5 321H118.5ZM124.304 291.717C126.883 285.499 130.259 279.693 134.304 274.429L131.925 272.601C127.722 278.071 124.214 284.104 121.533 290.568L124.304 291.717ZM148.429 260.304C153.693 256.259 159.499 252.883 165.717 250.304L164.568 247.533C158.104 250.214 152.071 253.722 146.601 257.925L148.429 260.304ZM185.006 245.147C188.277 244.72 191.612 244.5 195 244.5V241.5C191.482 241.5 188.017 241.729 184.618 242.172L185.006 245.147ZM195 244.5H206.25V241.5H195V244.5ZM228.75 244.5H251.25V241.5H228.75V244.5ZM273.75 244.5H296.25V241.5H273.75V244.5ZM318.75 244.5H341.25V241.5H318.75V244.5ZM363.75 244.5H375V241.5H363.75V244.5ZM215.625 396C213.968 396 212.625 397.343 212.625 399C212.625 400.657 213.968 402 215.625 402V396ZM201.875 402C203.532 402 204.875 400.657 204.875 399C204.875 397.343 203.532 396 201.875 396V402ZM185.201 395.366C183.558 395.152 182.052 396.31 181.838 397.953C181.623 399.596 182.782 401.101 184.424 401.316L185.201 395.366ZM163.993 395.852C165.524 396.487 167.279 395.761 167.914 394.23C168.548 392.7 167.822 390.945 166.292 390.31L163.993 395.852ZM149.343 380.506C148.029 379.497 146.146 379.743 145.136 381.057C144.127 382.371 144.373 384.254 145.687 385.264L149.343 380.506ZM130.736 370.313C131.746 371.627 133.629 371.873 134.943 370.864C136.257 369.854 136.503 367.971 135.494 366.657L130.736 370.313ZM125.69 349.708C125.055 348.178 123.3 347.452 121.77 348.086C120.239 348.721 119.513 350.476 120.148 352.007L125.69 349.708ZM114.684 331.576C114.899 333.218 116.404 334.377 118.047 334.162C119.69 333.948 120.848 332.442 120.634 330.799L114.684 331.576ZM120.634 311.201C120.848 309.558 119.69 308.052 118.047 307.838C116.404 307.623 114.899 308.782 114.684 310.424L120.634 311.201ZM120.148 289.993C119.513 291.524 120.239 293.279 121.77 293.914C123.3 294.548 125.055 293.822 125.69 292.292L120.148 289.993ZM135.494 275.343C136.503 274.029 136.257 272.146 134.943 271.136C133.629 270.127 131.746 270.373 130.736 271.687L135.494 275.343ZM145.687 256.736C144.373 257.746 144.127 259.629 145.136 260.943C146.146 262.257 148.029 262.503 149.343 261.494L145.687 256.736ZM166.292 251.69C167.822 251.055 168.548 249.3 167.914 247.77C167.279 246.239 165.524 245.513 163.993 246.148L166.292 251.69ZM184.424 240.684C182.782 240.899 181.623 242.404 181.838 244.047C182.052 245.69 183.558 246.848 185.201 246.634L184.424 240.684ZM206.25 246C207.907 246 209.25 244.657 209.25 243C209.25 241.343 207.907 240 206.25 240V246ZM228.75 240C227.093 240 225.75 241.343 225.75 243C225.75 244.657 227.093 246 228.75 246V240ZM251.25 246C252.907 246 254.25 244.657 254.25 243C254.25 241.343 252.907 240 251.25 240V246ZM273.75 240C272.093 240 270.75 241.343 270.75 243C270.75 244.657 272.093 246 273.75 246V240ZM296.25 246C297.907 246 299.25 244.657 299.25 243C299.25 241.343 297.907 240 296.25 240V246ZM318.75 240C317.093 240 315.75 241.343 315.75 243C315.75 244.657 317.093 246 318.75 246V240ZM341.25 246C342.907 246 344.25 244.657 344.25 243C344.25 241.343 342.907 240 341.25 240V246ZM363.75 240C362.093 240 360.75 241.343 360.75 243C360.75 244.657 362.093 246 363.75 246V240ZM222.5 396H215.625V402H222.5V396ZM201.875 396H195V402H201.875V396ZM195 396C191.677 396 188.406 395.784 185.201 395.366L184.424 401.316C187.887 401.767 191.417 402 195 402V396ZM166.292 390.31C160.196 387.782 154.505 384.473 149.343 380.506L145.687 385.264C151.26 389.546 157.407 393.121 163.993 395.852L166.292 390.31ZM135.494 366.657C131.527 361.495 128.218 355.804 125.69 349.708L120.148 352.007C122.879 358.593 126.454 364.74 130.736 370.313L135.494 366.657ZM120.634 330.799C120.216 327.594 120 324.323 120 321H114C114 324.583 114.233 328.113 114.684 331.576L120.634 330.799ZM120 321C120 317.677 120.216 314.406 120.634 311.201L114.684 310.424C114.233 313.887 114 317.417 114 321H120ZM125.69 292.292C128.218 286.196 131.527 280.505 135.494 275.343L130.736 271.687C126.454 277.26 122.879 283.407 120.148 289.993L125.69 292.292ZM149.343 261.494C154.505 257.527 160.196 254.218 166.292 251.69L163.993 246.148C157.407 248.879 151.26 252.454 145.687 256.736L149.343 261.494ZM185.201 246.634C188.406 246.216 191.677 246 195 246V240C191.417 240 187.887 240.233 184.424 240.684L185.201 246.634ZM195 246H206.25V240H195V246ZM228.75 246H251.25V240H228.75V246ZM273.75 246H296.25V240H273.75V246ZM318.75 246H341.25V240H318.75V246ZM363.75 246H375V240H363.75V246Z" fill="url(#paint0_linear_2_40)"/>
<path d="M1032.38 244.5C1033.2 244.5 1033.88 243.828 1033.88 243C1033.88 242.172 1033.2 241.5 1032.38 241.5V244.5ZM1046.13 241.5C1045.3 241.5 1044.63 242.172 1044.63 243C1044.63 243.828 1045.3 244.5 1046.13 244.5V241.5ZM1062.99 245.147C1063.81 245.254 1064.57 244.675 1064.67 243.853C1064.78 243.032 1064.2 242.279 1063.38 242.172L1062.99 245.147ZM1083.43 247.533C1082.67 247.216 1081.79 247.579 1081.47 248.344C1081.15 249.109 1081.52 249.987 1082.28 250.304L1083.43 247.533ZM1099.57 260.304C1100.23 260.809 1101.17 260.686 1101.67 260.029C1102.18 259.372 1102.06 258.43 1101.4 257.925L1099.57 260.304ZM1116.07 272.601C1115.57 271.944 1114.63 271.821 1113.97 272.325C1113.31 272.83 1113.19 273.772 1113.7 274.429L1116.07 272.601ZM1123.7 291.717C1124.01 292.482 1124.89 292.845 1125.66 292.528C1126.42 292.211 1126.78 291.333 1126.47 290.568L1123.7 291.717ZM1131.83 310.618C1131.72 309.797 1130.97 309.218 1130.15 309.325C1129.33 309.432 1128.75 310.185 1128.85 311.006L1131.83 310.618ZM1128.85 330.994C1128.75 331.815 1129.33 332.568 1130.15 332.675C1130.97 332.782 1131.72 332.203 1131.83 331.382L1128.85 330.994ZM1126.47 351.432C1126.78 350.667 1126.42 349.789 1125.66 349.472C1124.89 349.155 1124.01 349.518 1123.7 350.283L1126.47 351.432ZM1113.7 367.571C1113.19 368.228 1113.31 369.17 1113.97 369.675C1114.63 370.179 1115.57 370.056 1116.07 369.399L1113.7 367.571ZM1101.4 384.075C1102.06 383.57 1102.18 382.628 1101.67 381.971C1101.17 381.314 1100.23 381.191 1099.57 381.696L1101.4 384.075ZM1082.28 391.696C1081.52 392.013 1081.15 392.891 1081.47 393.656C1081.79 394.421 1082.67 394.784 1083.43 394.467L1082.28 391.696ZM1063.38 399.828C1064.2 399.721 1064.78 398.968 1064.67 398.147C1064.57 397.325 1063.81 396.746 1062.99 396.853L1063.38 399.828ZM1041.75 397.5C1040.92 397.5 1040.25 398.172 1040.25 399C1040.25 399.828 1040.92 400.5 1041.75 400.5V397.5ZM1019.25 400.5C1020.08 400.5 1020.75 399.828 1020.75 399C1020.75 398.172 1020.08 397.5 1019.25 397.5V400.5ZM996.75 397.5C995.922 397.5 995.25 398.172 995.25 399C995.25 399.828 995.922 400.5 996.75 400.5V397.5ZM974.25 400.5C975.078 400.5 975.75 399.828 975.75 399C975.75 398.172 975.078 397.5 974.25 397.5V400.5ZM951.75 397.5C950.922 397.5 950.25 398.172 950.25 399C950.25 399.828 950.922 400.5 951.75 400.5V397.5ZM929.25 400.5C930.078 400.5 930.75 399.828 930.75 399C930.75 398.172 930.078 397.5 929.25 397.5V400.5ZM906.75 397.5C905.922 397.5 905.25 398.172 905.25 399C905.25 399.828 905.922 400.5 906.75 400.5V397.5ZM884.25 400.5C885.078 400.5 885.75 399.828 885.75 399C885.75 398.172 885.078 397.5 884.25 397.5V400.5ZM1025.5 244.5H1032.38V241.5H1025.5V244.5ZM1046.13 244.5H1053V241.5H1046.13V244.5ZM1053 244.5C1056.39 244.5 1059.72 244.72 1062.99 245.147L1063.38 242.172C1059.98 241.729 1056.52 241.5 1053 241.5V244.5ZM1082.28 250.304C1088.5 252.883 1094.31 256.259 1099.57 260.304L1101.4 257.925C1095.93 253.722 1089.9 250.214 1083.43 247.533L1082.28 250.304ZM1113.7 274.429C1117.74 279.693 1121.12 285.499 1123.7 291.717L1126.47 290.568C1123.79 284.104 1120.28 278.071 1116.07 272.601L1113.7 274.429ZM1128.85 311.006C1129.28 314.277 1129.5 317.612 1129.5 321H1132.5C1132.5 317.482 1132.27 314.017 1131.83 310.618L1128.85 311.006ZM1129.5 321C1129.5 324.388 1129.28 327.723 1128.85 330.994L1131.83 331.382C1132.27 327.983 1132.5 324.518 1132.5 321H1129.5ZM1123.7 350.283C1121.12 356.501 1117.74 362.307 1113.7 367.571L1116.07 369.399C1120.28 363.929 1123.79 357.896 1126.47 351.432L1123.7 350.283ZM1099.57 381.696C1094.31 385.741 1088.5 389.117 1082.28 391.696L1083.43 394.467C1089.9 391.786 1095.93 388.278 1101.4 384.075L1099.57 381.696ZM1062.99 396.853C1059.72 397.28 1056.39 397.5 1053 397.5V400.5C1056.52 400.5 1059.98 400.271 1063.38 399.828L1062.99 396.853ZM1053 397.5H1041.75V400.5H1053V397.5ZM1019.25 397.5H996.75V400.5H1019.25V397.5ZM974.25 397.5H951.75V400.5H974.25V397.5ZM929.25 397.5H906.75V400.5H929.25V397.5ZM884.25 397.5H873V400.5H884.25V397.5ZM1032.38 246C1034.03 246 1035.38 244.657 1035.38 243C1035.38 241.343 1034.03 240 1032.38 240V246ZM1046.13 240C1044.47 240 1043.13 241.343 1043.13 243C1043.13 244.657 1044.47 246 1046.13 246V240ZM1062.8 246.634C1064.44 246.848 1065.95 245.69 1066.16 244.047C1066.38 242.404 1065.22 240.899 1063.58 240.684L1062.8 246.634ZM1084.01 246.148C1082.48 245.513 1080.72 246.239 1080.09 247.77C1079.45 249.3 1080.18 251.055 1081.71 251.69L1084.01 246.148ZM1098.66 261.494C1099.97 262.503 1101.85 262.257 1102.86 260.943C1103.87 259.629 1103.63 257.746 1102.31 256.736L1098.66 261.494ZM1117.26 271.687C1116.25 270.373 1114.37 270.127 1113.06 271.136C1111.74 272.146 1111.5 274.029 1112.51 275.343L1117.26 271.687ZM1122.31 292.292C1122.94 293.822 1124.7 294.548 1126.23 293.914C1127.76 293.279 1128.49 291.524 1127.85 289.993L1122.31 292.292ZM1133.32 310.424C1133.1 308.782 1131.6 307.623 1129.95 307.838C1128.31 308.052 1127.15 309.558 1127.37 311.201L1133.32 310.424ZM1127.37 330.799C1127.15 332.442 1128.31 333.948 1129.95 334.162C1131.6 334.377 1133.1 333.218 1133.32 331.576L1127.37 330.799ZM1127.85 352.007C1128.49 350.476 1127.76 348.721 1126.23 348.086C1124.7 347.452 1122.94 348.178 1122.31 349.708L1127.85 352.007ZM1112.51 366.657C1111.5 367.971 1111.74 369.854 1113.06 370.864C1114.37 371.873 1116.25 371.627 1117.26 370.313L1112.51 366.657ZM1102.31 385.264C1103.63 384.254 1103.87 382.371 1102.86 381.057C1101.85 379.743 1099.97 379.497 1098.66 380.506L1102.31 385.264ZM1081.71 390.31C1080.18 390.945 1079.45 392.7 1080.09 394.23C1080.72 395.761 1082.48 396.487 1084.01 395.852L1081.71 390.31ZM1063.58 401.316C1065.22 401.101 1066.38 399.596 1066.16 397.953C1065.95 396.31 1064.44 395.152 1062.8 395.366L1063.58 401.316ZM1041.75 396C1040.09 396 1038.75 397.343 1038.75 399C1038.75 400.657 1040.09 402 1041.75 402V396ZM1019.25 402C1020.91 402 1022.25 400.657 1022.25 399C1022.25 397.343 1020.91 396 1019.25 396V402ZM996.75 396C995.093 396 993.75 397.343 993.75 399C993.75 400.657 995.093 402 996.75 402V396ZM974.25 402C975.907 402 977.25 400.657 977.25 399C977.25 397.343 975.907 396 974.25 396V402ZM951.75 396C950.093 396 948.75 397.343 948.75 399C948.75 400.657 950.093 402 951.75 402V396ZM929.25 402C930.907 402 932.25 400.657 932.25 399C932.25 397.343 930.907 396 929.25 396V402ZM906.75 396C905.093 396 903.75 397.343 903.75 399C903.75 400.657 905.093 402 906.75 402V396ZM884.25 402C885.907 402 887.25 400.657 887.25 399C887.25 397.343 885.907 396 884.25 396V402ZM1025.5 246H1032.38V240H1025.5V246ZM1046.13 246H1053V240H1046.13V246ZM1053 246C1056.32 246 1059.59 246.216 1062.8 246.634L1063.58 240.684C1060.11 240.233 1056.58 240 1053 240V246ZM1081.71 251.69C1087.8 254.218 1093.5 257.527 1098.66 261.494L1102.31 256.736C1096.74 252.454 1090.59 248.879 1084.01 246.148L1081.71 251.69ZM1112.51 275.343C1116.47 280.505 1119.78 286.196 1122.31 292.292L1127.85 289.993C1125.12 283.407 1121.55 277.26 1117.26 271.687L1112.51 275.343ZM1127.37 311.201C1127.78 314.406 1128 317.677 1128 321H1134C1134 317.417 1133.77 313.887 1133.32 310.424L1127.37 311.201ZM1128 321C1128 324.323 1127.78 327.594 1127.37 330.799L1133.32 331.576C1133.77 328.113 1134 324.583 1134 321H1128ZM1122.31 349.708C1119.78 355.804 1116.47 361.495 1112.51 366.657L1117.26 370.313C1121.55 364.74 1125.12 358.593 1127.85 352.007L1122.31 349.708ZM1098.66 380.506C1093.5 384.473 1087.8 387.782 1081.71 390.31L1084.01 395.852C1090.59 393.121 1096.74 389.546 1102.31 385.264L1098.66 380.506ZM1062.8 395.366C1059.59 395.784 1056.32 396 1053 396V402C1056.58 402 1060.11 401.767 1063.58 401.316L1062.8 395.366ZM1053 396H1041.75V402H1053V396ZM1019.25 396H996.75V402H1019.25V396ZM974.25 396H951.75V402H974.25V396ZM929.25 396H906.75V402H929.25V396ZM884.25 396H873V402H884.25V396Z" fill="url(#paint1_linear_2_40)"/>
<g opacity="0.5" filter="url(#filter0_f_2_40)">
<path opacity="0.5" d="M610.5 389C707.978 389 787 343.781 787 288C787 232.219 707.978 187 610.5 187C513.022 187 434 232.219 434 288C434 343.781 513.022 389 610.5 389Z" fill="#7718ED" fill-opacity="0.17"/>
</g>
<g filter="url(#filter1_d_2_40)">
<path d="M222 437C254.033 437 280 411.033 280 379C280 346.967 254.033 321 222 321C189.967 321 164 346.967 164 379C164 411.033 189.967 437 222 437Z" fill="white"/>
</g>
<path d="M222 412.25C240.363 412.25 255.25 397.363 255.25 379C255.25 360.637 240.363 345.75 222 345.75C203.637 345.75 188.75 360.637 188.75 379C188.75 397.363 203.637 412.25 222 412.25Z" fill="#FF3366"/>
<path d="M210.979 366.791C213.274 366.791 215.135 364.93 215.135 362.635C215.135 360.339 213.274 358.479 210.979 358.479C208.683 358.479 206.822 360.339 206.822 362.635C206.822 364.93 208.683 366.791 210.979 366.791Z" fill="white"/>
<path d="M202.295 370.354L200.848 375.66H205.598C204.645 379.532 202.651 387.676 202.295 389.279C201.85 391.283 201.775 396.998 207.787 396.998C211.983 396.998 214.66 394.287 216.152 392.074L215.023 396.59H221.777L225.303 382.32C225.804 379.946 226.983 375.363 231.24 375.363C236.304 375.363 234.446 381.359 233.536 384.297C233.499 384.417 233.463 384.532 233.43 384.641C232.747 386.867 232.02 389.465 232.02 391.246C232.02 393.25 232.947 396.998 238.143 396.998C243.338 396.998 245.552 391.852 246.01 389.279L243.375 388.203C243.189 389.576 241.52 392.545 239.961 392.545C237.827 392.545 238.899 388.948 240.043 385.109C240.55 383.406 241.072 381.655 241.334 380.15C241.997 376.345 241.334 369.871 234.729 369.871C230.626 369.871 227.404 373.527 225.872 376.065L227.158 370.354H216.879L215.469 375.66H220.256C220.256 375.66 217.415 387.237 217.231 387.6C215.302 391.413 212.383 392.693 210.199 392.545C208.448 392.426 208.653 390.318 208.975 389.279L213.725 370.354H202.295Z" fill="white"/>
<g filter="url(#filter2_d_2_40)">
<path d="M544 437C576.033 437 602 411.033 602 379C602 346.967 576.033 321 544 321C511.967 321 486 346.967 486 379C486 411.033 511.967 437 544 437Z" fill="white"/>
</g>
<path d="M544 412.25C562.364 412.25 577.25 397.363 577.25 379C577.25 360.637 562.364 345.75 544 345.75C525.637 345.75 510.75 360.637 510.75 379C510.75 397.363 525.637 412.25 544 412.25Z" fill="#FF5502"/>
<path d="M562.834 390.875H543.392V367.387C545.194 365.742 547.527 364.75 550.076 364.75C555.716 364.75 560.3 369.61 560.402 375.647C561.163 375.357 561.982 375.2 562.834 375.2C566.861 375.2 570.125 378.709 570.125 383.038C570.125 387.366 566.861 390.875 562.834 390.875Z" fill="white"/>
<path d="M541.625 369.5H539.25V390.875H541.625V369.5Z" fill="white"/>
<path d="M534.5 371.875H536.875V390.875H534.5V371.875Z" fill="white"/>
<path d="M532.125 376.625H529.75V390.875H532.125V376.625Z" fill="white"/>
<path d="M525 374.25H527.375V390.875H525V374.25Z" fill="white"/>
<path d="M522.625 379H520.25V390.875H522.625V379Z" fill="white"/>
<g filter="url(#filter3_d_2_40)">
<path d="M705 334C737.032 334 763 308.032 763 276C763 243.967 737.032 218 705 218C672.967 218 647 243.967 647 276C647 308.032 672.967 334 705 334Z" fill="white"/>
</g>
<path d="M705 242.75C686.661 242.75 671.75 257.661 671.75 276C671.75 294.339 686.661 309.25 705 309.25C723.339 309.25 738.25 294.339 738.25 276C738.25 257.661 723.339 242.75 705 242.75Z" fill="#FF5A5F"/>
<path d="M705 284.756C702.82 282.014 701.538 279.61 701.11 277.554C700.683 275.883 700.854 274.555 701.58 273.569C702.35 272.412 703.504 271.855 705 271.855C706.496 271.855 707.65 272.412 708.419 273.569C709.146 274.555 709.317 275.883 708.89 277.554C708.419 279.653 707.137 282.052 705 284.756ZM716.934 291.097C713.301 292.682 709.706 290.154 706.628 286.727C711.719 280.339 712.66 275.369 710.475 272.151C709.193 270.309 707.355 269.409 705 269.409C700.255 269.409 697.644 273.436 698.67 278.111C699.268 280.639 700.85 283.513 703.371 286.727C701.48 288.828 698.998 291.211 696.02 291.483C691.702 292.125 688.321 287.926 689.86 283.595L700.807 260.879C701.741 259.171 702.894 257.708 704.996 257.708C706.534 257.708 707.731 258.608 708.244 259.336L720.131 283.595C721.296 286.526 719.819 289.848 716.934 291.097ZM722.448 282.738L712.271 261.521C710.347 257.579 708.979 255.219 705 255.219C701.068 255.219 699.396 257.961 697.687 261.521L687.552 282.738C685.372 288.74 689.86 294.01 695.293 294.01C695.635 294.01 695.974 293.968 696.319 293.968C699.14 293.625 702.051 291.825 705 288.608C707.949 291.821 710.86 293.625 713.681 293.968C714.026 293.968 714.365 294.01 714.707 294.01C720.14 294.015 724.628 288.74 722.448 282.738Z" fill="white"/>
<g filter="url(#filter4_d_2_40)">
<path d="M383 334C415.033 334 441 308.032 441 276C441 243.967 415.033 218 383 218C350.967 218 325 243.967 325 276C325 308.032 350.967 334 383 334Z" fill="white"/>
</g>
<path fill-rule="evenodd" clip-rule="evenodd" d="M383 309.25C401.363 309.25 416.25 294.363 416.25 276C416.25 257.637 401.363 242.75 383 242.75C364.637 242.75 349.75 257.637 349.75 276C349.75 294.363 364.637 309.25 383 309.25Z" fill="#2BDE73"/>
<path fill-rule="evenodd" clip-rule="evenodd" d="M379.098 269.95L386.279 259.853C387.637 257.951 389.39 257 391.539 257C393.292 257 394.808 257.603 396.091 258.811C397.372 260.018 398.013 261.463 398.013 263.146C398.013 264.39 397.675 265.487 396.996 266.438L390.521 275.575L398.438 285.315C399.229 286.285 399.625 287.419 399.625 288.717C399.625 290.437 399.004 291.913 397.759 293.148C396.515 294.383 395.006 295 393.235 295C391.293 295 389.814 294.388 388.796 293.162L379.098 281.419V287.894C379.098 289.742 378.768 291.178 378.108 292.202C376.902 294.067 375.149 295 372.85 295C370.757 295 369.136 294.314 367.986 292.942C366.912 291.68 366.375 290.006 366.375 287.922V263.914C366.375 261.938 366.921 260.311 368.015 259.031C369.164 257.677 370.747 257 372.764 257C374.687 257 376.289 257.677 377.571 259.031C378.287 259.78 378.74 260.539 378.928 261.308C379.041 261.784 379.098 262.67 379.098 263.969V269.95Z" fill="white"/>
<g filter="url(#filter5_d_2_40)">
<path d="M865 437C897.033 437 923 411.033 923 379C923 346.967 897.033 321 865 321C832.967 321 807 346.967 807 379C807 411.033 832.967 437 865 437Z" fill="white"/>
</g>
<path d="M898.25 379C898.25 360.637 883.363 345.75 865 345.75C846.637 345.75 831.75 360.637 831.75 379C831.75 397.363 846.637 412.25 865 412.25C883.363 412.25 898.25 397.363 898.25 379Z" fill="#1275B1"/>
<path d="M856.969 364.019C856.969 366.238 855.045 368.038 852.672 368.038C850.299 368.038 848.375 366.238 848.375 364.019C848.375 361.799 850.299 360 852.672 360C855.045 360 856.969 361.799 856.969 364.019Z" fill="white"/>
<path d="M848.963 370.992H856.308V393.25H848.963V370.992Z" fill="white"/>
<path d="M868.134 370.992H860.789V393.25H868.134C868.134 393.25 868.134 386.243 868.134 381.862C868.134 379.232 869.032 376.591 872.615 376.591C876.664 376.591 876.639 380.032 876.62 382.698C876.596 386.183 876.655 389.739 876.655 393.25H884V381.503C883.938 374.002 881.983 370.545 875.553 370.545C871.734 370.545 869.367 372.279 868.134 373.847V370.992Z" fill="white"/>
<g filter="url(#filter6_d_2_40)">
<path d="M1026 334C1058.03 334 1084 308.032 1084 276C1084 243.967 1058.03 218 1026 218C993.967 218 968 243.967 968 276C968 308.032 993.967 334 1026 334Z" fill="white"/>
</g>
<path d="M1026 242.75C1007.66 242.75 992.75 257.661 992.75 276C992.75 294.339 1007.66 309.25 1026 309.25C1044.34 309.25 1059.25 294.339 1059.25 276C1059.25 257.661 1044.34 242.75 1026 242.75Z" fill="url(#paint2_radial_2_40)"/>
<path fill-rule="evenodd" clip-rule="evenodd" d="M1019.34 272.343C1019.3 272.357 1019.25 272.344 1019.22 272.31C1017.93 270.609 1017.6 267.685 1017.53 266.561C1017.51 266.345 1017.26 266.223 1017.07 266.332C1013.08 268.56 1009.38 273.832 1009.38 278.921C1009.38 287.665 1015.48 295 1026 295C1035.85 295 1042.63 287.44 1042.63 278.922C1042.63 267.777 1034.61 260.372 1027.48 257.024C1027.31 256.946 1027.09 257.107 1027.11 257.289C1028.03 263.295 1026.76 269.828 1019.34 272.343Z" fill="white"/>
<defs>
<filter id="filter0_f_2_40" x="247" y="0" width="727" height="576" filterUnits="userSpaceOnUse" color-interpolation-filters="sRGB">
<feFlood flood-opacity="0" result="BackgroundImageFix"/>
<feBlend mode="normal" in="SourceGraphic" in2="BackgroundImageFix" result="shape"/>
<feGaussianBlur stdDeviation="93.5" result="effect1_foregroundBlur_2_40"/>
</filter>
<filter id="filter1_d_2_40" x="0.693207" y="191.689" width="442.614" height="442.614" filterUnits="userSpaceOnUse" color-interpolation-filters="sRGB">
<feFlood flood-opacity="0" result="BackgroundImageFix"/>
<feColorMatrix in="SourceAlpha" type="matrix" values="0 0 0 0 0 0 0 0 0 0 0 0 0 0 0 0 0 0 127 0" result="hardAlpha"/>
<feOffset dy="33.9958"/>
<feGaussianBlur stdDeviation="81.6534"/>
<feColorMatrix type="matrix" values="0 0 0 0 0.0666667 0 0 0 0 0.145098 0 0 0 0 0.243137 0 0 0 0.16 0"/>
<feBlend mode="normal" in2="BackgroundImageFix" result="effect1_dropShadow_2_40"/>
<feBlend mode="normal" in="SourceGraphic" in2="effect1_dropShadow_2_40" result="shape"/>
</filter>
<filter id="filter2_d_2_40" x="322.693" y="191.689" width="442.614" height="442.614" filterUnits="userSpaceOnUse" color-interpolation-filters="sRGB">
<feFlood flood-opacity="0" result="BackgroundImageFix"/>
<feColorMatrix in="SourceAlpha" type="matrix" values="0 0 0 0 0 0 0 0 0 0 0 0 0 0 0 0 0 0 127 0" result="hardAlpha"/>
<feOffset dy="33.9958"/>
<feGaussianBlur stdDeviation="81.6534"/>
<feColorMatrix type="matrix" values="0 0 0 0 0.0666667 0 0 0 0 0.145098 0 0 0 0 0.243137 0 0 0 0.16 0"/>
<feBlend mode="normal" in2="BackgroundImageFix" result="effect1_dropShadow_2_40"/>
<feBlend mode="normal" in="SourceGraphic" in2="effect1_dropShadow_2_40" result="shape"/>
</filter>
<filter id="filter3_d_2_40" x="483.693" y="88.689" width="442.614" height="442.614" filterUnits="userSpaceOnUse" color-interpolation-filters="sRGB">
<feFlood flood-opacity="0" result="BackgroundImageFix"/>
<feColorMatrix in="SourceAlpha" type="matrix" values="0 0 0 0 0 0 0 0 0 0 0 0 0 0 0 0 0 0 127 0" result="hardAlpha"/>
<feOffset dy="33.9958"/>
<feGaussianBlur stdDeviation="81.6534"/>
<feColorMatrix type="matrix" values="0 0 0 0 0.0666667 0 0 0 0 0.145098 0 0 0 0 0.243137 0 0 0 0.16 0"/>
<feBlend mode="normal" in2="BackgroundImageFix" result="effect1_dropShadow_2_40"/>
<feBlend mode="normal" in="SourceGraphic" in2="effect1_dropShadow_2_40" result="shape"/>
</filter>
<filter id="filter4_d_2_40" x="161.693" y="88.689" width="442.614" height="442.614" filterUnits="userSpaceOnUse" color-interpolation-filters="sRGB">
<feFlood flood-opacity="0" result="BackgroundImageFix"/>
<feColorMatrix in="SourceAlpha" type="matrix" values="0 0 0 0 0 0 0 0 0 0 0 0 0 0 0 0 0 0 127 0" result="hardAlpha"/>
<feOffset dy="33.9958"/>
<feGaussianBlur stdDeviation="81.6534"/>
<feColorMatrix type="matrix" values="0 0 0 0 0.0666667 0 0 0 0 0.145098 0 0 0 0 0.243137 0 0 0 0.16 0"/>
<feBlend mode="normal" in2="BackgroundImageFix" result="effect1_dropShadow_2_40"/>
<feBlend mode="normal" in="SourceGraphic" in2="effect1_dropShadow_2_40" result="shape"/>
</filter>
<filter id="filter5_d_2_40" x="643.693" y="191.689" width="442.614" height="442.614" filterUnits="userSpaceOnUse" color-interpolation-filters="sRGB">
<feFlood flood-opacity="0" result="BackgroundImageFix"/>
<feColorMatrix in="SourceAlpha" type="matrix" values="0 0 0 0 0 0 0 0 0 0 0 0 0 0 0 0 0 0 127 0" result="hardAlpha"/>
<feOffset dy="33.9958"/>
<feGaussianBlur stdDeviation="81.6534"/>
<feColorMatrix type="matrix" values="0 0 0 0 0.0666667 0 0 0 0 0.145098 0 0 0 0 0.243137 0 0 0 0.16 0"/>
<feBlend mode="normal" in2="BackgroundImageFix" result="effect1_dropShadow_2_40"/>
<feBlend mode="normal" in="SourceGraphic" in2="effect1_dropShadow_2_40" result="shape"/>
</filter>
<filter id="filter6_d_2_40" x="804.693" y="88.689" width="442.614" height="442.614" filterUnits="userSpaceOnUse" color-interpolation-filters="sRGB">
<feFlood flood-opacity="0" result="BackgroundImageFix"/>
<feColorMatrix in="SourceAlpha" type="matrix" values="0 0 0 0 0 0 0 0 0 0 0 0 0 0 0 0 0 0 127 0" result="hardAlpha"/>
<feOffset dy="33.9958"/>
<feGaussianBlur stdDeviation="81.6534"/>
<feColorMatrix type="matrix" values="0 0 0 0 0.0666667 0 0 0 0 0.145098 0 0 0 0 0.243137 0 0 0 0.16 0"/>
<feBlend mode="normal" in2="BackgroundImageFix" result="effect1_dropShadow_2_40"/>
<feBlend mode="normal" in="SourceGraphic" in2="effect1_dropShadow_2_40" result="shape"/>
</filter>
<linearGradient id="paint0_linear_2_40" x1="246" y1="243" x2="246" y2="399" gradientUnits="userSpaceOnUse">
<stop stop-color="#762AD6"/>
<stop offset="0.515625" stop-color="#D477AF"/>
<stop offset="0.979167" stop-color="#FFD9DD"/>
</linearGradient>
<linearGradient id="paint1_linear_2_40" x1="1002" y1="399" x2="1002" y2="243" gradientUnits="userSpaceOnUse">
<stop stop-color="#762AD6"/>
<stop offset="0.515625" stop-color="#D477AF"/>
<stop offset="0.979167" stop-color="#FFD9DD"/>
</linearGradient>
<radialGradient id="paint2_radial_2_40" cx="0" cy="0" r="1" gradientUnits="userSpaceOnUse" gradientTransform="translate(1026 309.25) scale(71.0439)">
<stop stop-color="#FF7854"/>
<stop offset="1" stop-color="#FD267D"/>
</radialGradient>
</defs>
</svg>
